<?xml version="1.0" encoding="UTF-8"?>
<svg width="48px" height="47px" viewBox="0 0 48 47" version="1.1" xmlns="http://www.w3.org/2000/svg" xmlns:xlink="http://www.w3.org/1999/xlink">
    <!-- Generator: Sketch 63 (92445) - https://sketch.com -->
    <title>画板</title>
    <desc>Created with Sketch.</desc>
    <g id="画板" stroke="none" stroke-width="1" fill="none" fill-rule="evenodd">
        <g id="编组备份" transform="translate(6.000000, 5.000000)">
            <path d="M19.8509143,30.5357955 C25.835025,29.4618505 30.1003579,24.8981414 30.5786436,18.8536602 C30.5924481,18.6806977 30.6238466,18.5093594 30.6584932,18.2519459 L35.745591,18.2519459 C36.1375308,25.7494195 29.968809,35.2068632 19.0058617,35.9593444 C9.00300451,36.6457805 0.257169925,28.5679759 0.0054406015,18.4933895 C-0.240875188,8.63750977 8.00177143,0.0538105263 17.7217714,0.175344361 L17.7217714,5.11979549 C15.7907738,5.47893593 13.9025134,5.87755102 12.507997,6.6978406 C12.0879313,6.94493381 10.471225,7.75893347 9.4512099,8.73777661 C8.88584406,9.280322 7.90822027,10.2583202 7.24746748,11.4767606 C4.82030959,14.6336628 4.91361581,20.7509849 6.98665659,24.122488 C7.08308479,24.2793146 8.47669143,26.2823967 9.18915004,26.9123983 C9.98551216,27.5942786 9.50721007,27.3758094 11.4868185,28.7381832 C13.3701048,30.1356235 16.6022186,31.1188262 19.8509143,30.5357955 Z" id="Fill-1" fill="#0B3988"></path>
            <path d="M7.60645716,24.3428747 C6.17332156,21.5844436 5.42348406,18.6961 6.17251988,15.5972177 C6.5017429,14.2354131 6.97678238,12.7132401 7.60645716,11.7397535 C8.7016695,10.1352784 9.80284426,8.77984371 11.4416916,7.77139484 C15.3421292,5.59207889 19.3609482,5.14689414 23.4214546,7.20995848 C27.6222548,9.34480952 29.7734279,12.9143233 30.110935,17.5807273 C30.2343936,19.2883403 29.3584252,20.5818404 27.8004948,20.6297875 C23.8567665,20.7516642 19.9066247,20.6702345 15.8642898,20.6702345 L15.8642898,15.3408748 L23.3754916,15.3408748 C22.9471276,13.1468265 20.2417267,11.5466258 17.4911646,11.7397535 C14.504107,11.9494885 11.9582403,14.4655056 11.7164004,17.4465291 C11.4245891,21.0433647 13.6265352,23.6084003 17.8382918,24.488591 L17.8382918,30.0949188 C15.515292,30.3105468 13.7722952,29.6582964 11.7164004,28.403867 C10.0732533,27.2336289 8.98586383,26.3454983 7.60645716,24.3428747 Z" id="Fill-3" fill="#DE0F0F"></path>
        </g>
    </g>
</svg>